<svg width="121" height="24" viewBox="0 0 121 24" fill="none" xmlns="http://www.w3.org/2000/svg">
<path d="M11 6.42134L16.5 0.842773H22V6.42134L16.5 11.9999V6.42134H11Z" fill="#25C4F4"/>
<path d="M11 17.5786L16.5 12H22V17.5786L16.5 23.1571V17.5786H11Z" fill="#25C4F4"/>
<path d="M0 6.42134L5.5 0.842773H11V6.42134L5.5 11.9999V6.42134H0Z" fill="#25C4F4"/>
<path d="M0 17.5786L5.5 12H11V17.5786L5.5 23.1571V17.5786H0Z" fill="#25C4F4"/>
<path d="M44.073 5.73518V8.01513H40.4137V19.8184H37.6593V8.01513H34V5.73518H44.073Z" fill="#25C4F4"/>
<path d="M54.5031 17.1349H49.0337L48.1287 19.8184H45.2367L50.1748 5.71501H53.3816L58.3198 19.8184H55.4081L54.5031 17.1349ZM53.7555 14.8752L51.7684 8.98361L49.7813 14.8752H53.7555Z" fill="#25C4F4"/>
<path d="M74.8675 10.0933C74.8675 10.8466 74.6904 11.5528 74.3363 12.2119C73.9953 12.871 73.451 13.4023 72.7034 13.8058C71.9689 14.2093 71.0376 14.4111 69.9097 14.4111H67.6078V19.8184H64.8535V5.73518H69.9097C70.9721 5.73518 71.877 5.9235 72.6247 6.30013C73.3723 6.67676 73.9297 7.19462 74.2969 7.85372C74.6773 8.51282 74.8675 9.25935 74.8675 10.0933ZM69.7916 12.1311C70.5523 12.1311 71.1163 11.9563 71.4836 11.6066C71.8508 11.2434 72.0344 10.739 72.0344 10.0933C72.0344 8.72131 71.2868 8.03531 69.7916 8.03531H67.6078V12.1311H69.7916Z" fill="#25C4F4"/>
<path d="M79.5774 10.3758C79.9315 9.78394 80.3905 9.31988 80.9545 8.98361C81.5316 8.64733 82.1874 8.47919 82.9219 8.47919V11.4451H82.194C81.3283 11.4451 80.6725 11.6536 80.2266 12.0706C79.7938 12.4876 79.5774 13.214 79.5774 14.2497V19.8184H76.823V8.64061H79.5774V10.3758Z" fill="#25C4F4"/>
<path d="M86.1739 7.30895C85.6886 7.30895 85.2821 7.15427 84.9542 6.84489C84.6394 6.52207 84.482 6.12526 84.482 5.65448C84.482 5.18369 84.6394 4.79361 84.9542 4.48424C85.2821 4.16141 85.6886 4 86.1739 4C86.6592 4 87.0593 4.16141 87.374 4.48424C87.7019 4.79361 87.8659 5.18369 87.8659 5.65448C87.8659 6.12526 87.7019 6.52207 87.374 6.84489C87.0593 7.15427 86.6592 7.30895 86.1739 7.30895ZM87.5314 8.64061V19.8184H84.7771V8.64061H87.5314Z" fill="#25C4F4"/>
<path d="M103.788 8.47919C105.126 8.47919 106.202 8.9029 107.015 9.75032C107.841 10.5843 108.254 11.7545 108.254 13.261V19.8184H105.5V13.6444C105.5 12.7701 105.284 12.1042 104.851 11.6469C104.418 11.1761 103.828 10.9407 103.08 10.9407C102.332 10.9407 101.736 11.1761 101.29 11.6469C100.857 12.1042 100.641 12.7701 100.641 13.6444V19.8184H97.8862V13.6444C97.8862 12.7701 97.6698 12.1042 97.2369 11.6469C96.8041 11.1761 96.2139 10.9407 95.4663 10.9407C94.7056 10.9407 94.1022 11.1761 93.6563 11.6469C93.2235 12.1042 93.0071 12.7701 93.0071 13.6444V19.8184H90.2527V8.64061H93.0071V9.99243C93.3612 9.52165 93.8137 9.15174 94.3645 8.88272C94.9285 8.6137 95.545 8.47919 96.2139 8.47919C97.0664 8.47919 97.8271 8.66751 98.4961 9.04414C99.165 9.40731 99.683 9.9319 100.05 10.6179C100.404 9.97226 100.916 9.45439 101.585 9.06431C102.267 8.67423 103.001 8.47919 103.788 8.47919Z" fill="#25C4F4"/>
<path d="M121 13.9874C121 14.3909 120.974 14.7541 120.921 15.0769H112.953C113.019 15.884 113.294 16.5162 113.78 16.9735C114.265 17.4309 114.862 17.6595 115.57 17.6595C116.593 17.6595 117.321 17.2089 117.754 16.3077H120.725C120.41 17.3838 119.806 18.2715 118.915 18.971C118.023 19.657 116.928 20 115.629 20C114.58 20 113.635 19.7646 112.796 19.2938C111.97 18.8096 111.32 18.1303 110.848 17.256C110.389 16.3817 110.16 15.3728 110.16 14.2295C110.16 13.0727 110.389 12.0572 110.848 11.1828C111.307 10.3085 111.95 9.63598 112.776 9.1652C113.603 8.69441 114.554 8.45902 115.629 8.45902C116.665 8.45902 117.59 8.68768 118.403 9.14502C119.229 9.60235 119.865 10.2547 120.311 11.1021C120.77 11.9361 121 12.8979 121 13.9874ZM118.147 13.1803C118.134 12.454 117.878 11.8756 117.38 11.4451C116.882 11.0013 116.272 10.7793 115.55 10.7793C114.868 10.7793 114.291 10.9945 113.819 11.425C113.36 11.8419 113.078 12.4271 112.973 13.1803H118.147Z" fill="#25C4F4"/>
</svg>
